<svg xmlns="http://www.w3.org/2000/svg" width="512" height="512" viewBox="0 0 512 512">
  	<g id="BEHANCE" transform="translate(0 0)">
    	<circle cx="256" cy="256" r="256" transform="translate(0 0)" fill="#010203"/>
    	<path d="M310.491,157.539v25.573H397.53V157.539Z" fill="#fff"/>
    	<path d="M264.654,283.928c-2.767-25.382-13.228-37.346-35.2-41.9,2.228-.966,3.9-1.735,5.61-2.424a34.03,34.03,0,0,0,18.553-17.16c11.079-22.863,1.583-55.281-20.062-68.549-11.318-6.937-23.793-9.186-36.876-9.165q-52.37.083-104.739.03c-1.669,0-3.338.205-5.254.331V357.977c1.643.117,2.588.242,3.533.242,36.256.01,72.512.065,108.767-.058a75.321,75.321,0,0,0,14.844-1.5c24.987-5.147,43.776-17.837,49.419-44.2A91.243,91.243,0,0,0,264.654,283.928ZM135.432,183.018c2.142-.1,4.162-.275,6.182-.278q26.165-.032,52.329-.007c10.334.01,16.625,4.571,17.818,14.724a73.654,73.654,0,0,1-.982,21.048c-1.2,6.812-6.1,11.389-13.268,11.491-20.485.292-40.976.1-62.079.1ZM218.5,303.148c-1.518,9.618-9.062,15.477-18.787,16.73a63.6,63.6,0,0,1-8.029.385c-18.56.031-37.12.017-56.259.017V263.661c1.842-.1,3.657-.292,5.472-.294q27.3-.033,54.6,0c11.791.034,20.169,5.672,22.6,17.17A63.54,63.54,0,0,1,218.5,303.148Z" fill="#fff"/>
    	<path d="M424.723,291.909c4.494.026,6.4-1.333,6.075-5.763-.709-9.542-.495-19.257-2.272-28.6-5.32-27.968-20.013-48.541-48.963-55.511a110.148,110.148,0,0,0-30.2-2.668c-27.2,1.183-49.465,12.177-63.079,36.711-13.034,23.488-16.213,48.5-8.549,74.482,7.779,26.372,25.254,42.863,51.918,49.282a118.483,118.483,0,0,0,48.572,1.19c12.016-2.111,23.363-6.2,32.915-14.152,12.625-10.517,17.83-24.213,17.675-40.6H391.668c-1.395,11.128-7.946,18.19-18.388,20.346-7.923,1.636-16.444,2.472-24.4,1.418-18.969-2.513-29.322-15.716-29.146-36.245,2.642,0,4.89,0,7.137,0C359.487,291.809,392.106,291.722,424.723,291.909Zm-105.1-28.87c2.663-20.707,20.071-34.551,40.54-32.668,17.62,1.622,29.688,15.274,28.576,32.668Z" fill="#fff"/>
  	</g>
</svg>
