<svg xmlns="http://www.w3.org/2000/svg" width="512" height="512" viewBox="0 0 512 512">
    <g transform="translate(0 0)">
        <circle cx="256" cy="256" r="256" transform="translate(0 0)" fill="#010203"/>
        <path d="M266.878,420.759H245c-1.038-.21-2.068-.473-3.115-.623-6.661-.951-13.415-1.463-19.974-2.882-34.495-7.459-63.8-24.194-87.6-50.257A160.371,160.371,0,0,1,93.8,284.7c-1.015-5.872-1.712-11.8-2.555-17.7V245.125c.2-.923.478-1.837.6-2.77.739-5.617,1.112-11.3,2.21-16.847,8.058-40.7,28.255-74.194,61.1-99.522,38.9-30,83.038-40.553,131.275-31.737,40.456,7.394,73.676,27.8,98.963,60.222,30.519,39.129,41.278,83.613,32.308,132.338-7.424,40.333-27.988,73.215-60.085,98.718a158.538,158.538,0,0,1-73,32.672C278.726,419.2,272.79,419.914,266.878,420.759Zm-97.152-57.025c45.244,36.737,105.36,36.989,143.122,17.675-5.581-33.992-15.291-66.864-27.663-99.223C238.274,297.676,200.772,325.922,169.726,363.734Zm91.447-136.177a416.43,416.43,0,0,1-70.6,17.131,479.894,479.894,0,0,1-72.338,5.728c-4.607,25.5,14.279,79.886,32.559,94.382,33.511-40.228,74.2-70.3,124.461-87.267C270.5,247.4,265.878,237.568,261.173,227.557Zm-12.734-23.9a637.3,637.3,0,0,0-47.934-73.885c-41.531,17.337-71.5,57.8-78.441,94.057C165,222.9,207.076,216.9,248.439,203.658Zm37.974,14.192c5.157,11.185,10.182,22.087,15.229,33.034,30.847-6.026,61.413-5.326,92.273.845-1.269-31.256-11.525-58.461-30.731-82.557C340.331,190,314.544,205.6,286.413,217.85ZM344.331,150.1a136.465,136.465,0,0,0-75.408-31.57c-13.784-1.386-27.6-.887-40.512,2.313l46.278,72.987C296.572,185.7,331.377,163.926,344.331,150.1Zm-6.919,217.439c29.928-22.936,48.258-52.147,54.857-88.914-26.9-5.98-53.534-7.233-80.786-2.689A554.087,554.087,0,0,1,337.412,367.543Z" fill="#fff"/>
    </g>
</svg>
