<svg xmlns="http://www.w3.org/2000/svg" width="512" height="512" viewBox="0 0 512 512">
    <g transform="translate(0 0)">
        <circle cx="256" cy="256" r="256" transform="translate(0 0)" fill="#010203"/>
        <path d="M231.151,318.907c0-15.68-.181-31.364.094-47.039.094-5.34-1.5-7.416-7.042-7.121-7.67.407-15.388-.129-23.068.17-5.163.2-7.515-1.225-7.269-6.919.409-9.449.3-18.935.032-28.395-.154-5.454,2.12-7.4,7.376-7.195,6.5.25,13.084-.54,19.508.2,8.957,1.03,11.01-2.661,10.562-10.971-.586-10.888-1.231-22.1.662-32.729,5.107-28.661,23.589-43.208,53.717-43.508,9.126-.091,18.258,1.111,27.4,1.4,3.976.126,5.046,1.968,5.012,5.521-.089,9.466-.1,18.935.028,28.4.053,3.863-1.687,5.216-5.363,5.16-7.1-.108-14.2-.117-21.3.046-10.177.233-16.356,5.353-17.154,15.328-.706,8.821-.213,17.738-.282,26.612-.029,3.71,1.374,5,5.4,4.834,10.339-.417,20.7-.147,31.056-.256,3.8-.04,6.346.557,5.528,5.433-1.7,10.155-3.517,20.326-4.42,30.567-.507,5.736-3.1,6.657-7.949,6.46-7.089-.288-14.228.337-21.291-.178-6.617-.483-8.571,1.74-8.492,8.44.355,30.174-.143,60.359.343,90.528.138,8.6-2.448,11.7-11.013,10.962a116.371,116.371,0,0,0-22.162.03c-8.66.921-10.345-2.753-10.064-10.519C231.541,349.1,231.155,334,231.151,318.907Z" fill="#fff"/>
    </g>
</svg>
