<svg xmlns="http://www.w3.org/2000/svg" width="512" height="512" viewBox="0 0 512 512">
    <g transform="translate(0 0)">
        <circle cx="256" cy="256" r="256" transform="translate(0 0)" fill="#141414"/>
        <path d="M305.632,138.239c7.252-9.8,15.916-20.048,29.03-25.261,8.355-3.322,8.235-3.3,10.867,5.225a61.409,61.409,0,0,1-.355,37.269c-.546,1.753-.6,4.718.457,5.75,12.131,11.839,15.075,27.229,16.294,42.957,1.316,16.992,2.489,34.181-3.647,50.672-8.829,23.726-26.8,37.419-50.234,44.732-7.014,2.189-14.294,3.528-21.581,5.288,6.626,10.6,8.854,22.289,8.837,34.558-.017,13.033-.013,37.687-.009,51.464a9.825,9.825,0,0,1-9.831,9.827H227.6a9.831,9.831,0,0,1-9.83-9.831V364.431c-11.741-.7-23.042-.23-33.858-2.3-15.293-2.921-25.725-13.158-33.212-26.626-4.663-8.385-9.569-16.664-14.882-24.647-2.267-3.407-5.832-5.957-8.843-8.86-1.665-1.605-3.405-3.132-5.815-5.339,5.537-3.193,10.475-2.3,15.149-1.33,11.022,2.283,18.1,9.683,23.68,18.978,11.563,19.244,32.261,27.179,53.37,20.318,1.9-.617,3.926-3.027,4.538-5.021,2.55-8.3,4.581-16.765,6.747-24.961-7.411-2-16.447-3.817-25.043-6.872-31.869-11.324-49.382-36.44-49.445-70.165-.031-16.5-.194-33.119,6.075-48.732,2.341-5.829,6.105-11.237,9.992-16.237,2.17-2.791,2.51-4.6,1.4-7.924-4.9-14.659-3.782-29.17,1.918-43.363,12.369.4,24.981,9.711,37.536,27.107C240.064,126.663,272.427,126.942,305.632,138.239Z" fill="#FFFFFF"/>
    </g>
</svg>
