<svg xmlns="http://www.w3.org/2000/svg" width="512" height="512" viewBox="0 0 512 512">
    <g transform="translate(0 0)">
        <circle cx="256" cy="256" r="256" transform="translate(0 0)" fill="#010203"/>
        <path d="M373.948,168.782c-.133-18.339-13.4-30.966-30.891-31q-87.435-.171-174.868.01c-17.765.045-30.193,12.543-30.226,30.171q-.162,87.877,0,175.755c.039,18.484,12.112,30.176,30.806,30.23,29,.083,57.993.022,86.989.02s57.994.045,86.99-.02c17.649-.039,31.057-11.845,31.188-29.412Q374.6,256.662,373.948,168.782Zm-50.982-4.628c23.353,0,23.353,0,23.352,23.57,0,22.787,0,22.787-23.767,22.789-23.108,0-23.108,0-23.1-22.825C299.45,164.157,299.45,164.157,322.966,164.154ZM255.1,209.523c28.651-.708,48.76,23.647,48.325,46.244-.486,25.3-21.341,45.444-47.916,45.432-24.981.712-47.589-18.675-47.259-45.865C208.6,226.663,230.657,210.126,255.1,209.523Zm92.353,125.162c-.054,8.938-4.075,12.471-13.465,12.5-26.327.082-52.654.028-78.981.029q-38.6,0-77.207-.015c-10.8-.021-14.534-3.54-14.572-14.175q-.16-43.928-.017-87.856c.019-8.341,1.967-8.981,15.952-7.944,7.578.561,4.561,4.836,3.891,8.673-6.869,39.366,21.308,75.957,60.976,82.4,37.636,6.114,79.6-18.6,85.221-63.22.987-7.842-.272-15.307-1.9-22.77-.8-3.655.114-4.993,3.657-4.969,3.254.021,6.515.13,9.76-.043,4.956-.266,6.83,2,6.814,6.87C347.483,274.339,347.635,304.513,347.455,334.685Z" fill="#fff"/>
    </g>
</svg>
