<svg xmlns="http://www.w3.org/2000/svg" width="512" height="512" viewBox="0 0 512 512">
    <g transform="translate(0 0)">
        <circle cx="256" cy="256" r="256" transform="translate(0 0)" fill="#141414"/>
        <path d="M267.951,235.747c21.594-27.358,51.608-29.4,76.838-19.143,16.726,6.8,23.6,21.32,27.554,37.69a85.1,85.1,0,0,1,1.944,20.223c-.045,30.192-.082,60.386.245,90.576.067,6.254-1.923,8.234-8.108,7.975a311.615,311.615,0,0,0-31.955.044c-7.469.455-8.789-2.643-8.7-9.214.312-23.085.243-46.178.039-69.266a139.4,139.4,0,0,0-1.7-20.285c-1.762-11.248-9.459-18.894-19.477-20.164-13.068-1.657-25.2,4.119-29.732,14.543a42.146,42.146,0,0,0-3.82,17.139c.1,26.344-.18,52.691.06,79.034.054,6-1.394,8.45-7.851,8.182-11.525-.479-23.088-.317-34.627-.058-5.051.113-7.421-1.008-7.4-6.788q.294-72.375.04-144.751c-.013-4.938,1.547-6.831,6.609-6.7,10.649.278,21.323.382,31.963-.044,6.088-.244,8.8,1.566,8.146,7.918C267.634,226.447,267.951,230.306,267.951,235.747Z" fill="#fefeff"/>
        <path d="M141.443,293.491c0-23.056.389-46.121-.208-69.161-.211-8.155,2.477-10.068,10.035-9.627,10.6.618,21.282.418,31.91.051,5.014-.173,7.019,1.925,7.357,6.456.175,2.352.338,4.713.339,7.07q.03,65.619,0,131.24c-.01,13.418-.078,13.42-12.967,13.423-8.867,0-17.794-.637-26.586.181-8.641.8-10.192-2.753-10.043-10.469C141.727,339.608,141.443,316.547,141.443,293.491Z" fill="#FFFFFF"/>
        <path d="M137.743,164.212c.127-16.373,12.041-27.746,28.833-27.525,15.439.2,28.333,13.246,27.913,28.241-.444,15.9-13.392,28.642-28.99,28.519C149.867,193.324,137.616,180.42,137.743,164.212Z" fill="#FFFFFF"/>
    </g>
</svg>
