<svg xmlns="http://www.w3.org/2000/svg" width="512" height="512" viewBox="0 0 512 512">
    <g transform="translate(0 0)">
        <circle cx="256" cy="256" r="256" transform="translate(0 0)" fill="#141414"/>
        <g>
            <path d="M188.189,148.168a119.578,119.578,0,0,0-31.556,0h0c-53.1,9.6-88.175,47.306-92.983,99.951l0,15.733c4.775,52.622,39.853,90.347,92.958,99.971a118.151,118.151,0,0,0,31.556,0c53.093-9.6,88.015-47.142,92.979-99.951l0-15.733C276.208,195.347,241.289,157.792,188.189,148.168Z" fill="#FFFFFF"/>
            <path d="M400.823,237.577c-1.883-20.473-6.653-40.135-17.137-58.023-7.048-12.024-15.673-22.481-30.08-26.162a29.383,29.383,0,0,0-15.716.094h0c-11.76,2.9-19.652,10.993-26.07,20.46-14.057,20.736-19.391,44.3-21.17,68.889l0,26.293c1.282,19.528,5.156,38.474,13.8,56.135,7.262,14.836,16.309,28.167,33.41,33.252a31.362,31.362,0,0,0,15.728.1c9.25-2.074,16.252-7.647,22.058-14.743,16.5-20.17,22.552-44.2,25.176-69.437A223.331,223.331,0,0,0,400.823,237.577Z" fill="#FFFFFF"/>
            <path d="M446.836,216.6c-1.893-15.6-3.53-31.327-10.253-45.859-1.71-3.7-3.491-7.9-8.466-7.634-4.413.24-6.067,4.208-7.653,7.62a67.653,67.653,0,0,0-3.592,9.779c-6.531,22.662-7.992,45.951-8.39,69.363q.008,7,.014,14c.481,9.928.474,19.91,1.554,29.773,1.773,16.2,3.478,32.517,10.394,47.61,1.682,3.671,3.526,7.9,8.51,7.637,4.428-.235,6.022-4.188,7.609-7.616a66.066,66.066,0,0,0,3.414-8.922c5.94-20.039,7.583-40.677,8.373-61.425V241.093C447.876,232.923,447.819,224.7,446.836,216.6Z" fill="#FFFFFF"/>
        </g>
    </g>
</svg>
