<svg xmlns="http://www.w3.org/2000/svg" width="512" height="512" viewBox="0 0 512 512">
    <g transform="translate(0 0)">
        <circle cx="256" cy="256" r="256" transform="translate(0 0)" fill="#010203"/>
        <path d="M240.91,295.982c-3.963,8.082-5.569,16.271-7.155,24.256a117.272,117.272,0,0,1-21.68,48c-2.056,2.748-3.818,7.489-7.477,6.36-3.271-1.009-2.786-6.111-3.04-9.382a170.916,170.916,0,0,1,5.274-57.948c4.725-17.611,8.584-35.453,13.185-53.1,1.309-5.017-.487-9.242-1.452-13.812-3.4-16.071-2.613-31.149,10.551-43.262,6.759-6.22,14.934-6.376,22.428-3.527,7.047,2.678,10.1,9.341,9.991,17.293-.236,16.9-7.492,32.056-11.544,48-3.96,15.581,5.519,27.707,21.548,27.957,13.194.2,22.192-7.26,28.224-17.2,12.6-20.755,18.02-43.562,13.218-67.858-4.179-21.145-20.162-36.174-41.808-39.035-25.778-3.408-48.256,2.407-66.439,22.929-12.443,14.044-21.609,50.585-5.712,68.267,2.686,2.988,1.051,18.256-2.089,20.8-4.436,3.59-8.513.7-12.018-1.885-13.808-10.165-19.823-24.3-21.116-41.117-3.942-51.276,37.565-88.48,84.032-92.649,25.4-2.279,48.9,1.56,69.334,17.356,23.9,18.477,33.531,43.011,30.219,73.166-2.735,24.9-10.96,46.708-29.483,64.412C300.336,310.8,263.2,319.118,240.91,295.982Z" fill="#fff"/>
    </g>
</svg>
