<svg xmlns="http://www.w3.org/2000/svg" width="512" height="512" viewBox="0 0 512 512">
    <g transform="translate(0 0)">
        <circle cx="256" cy="256" r="256" transform="translate(0 0)" fill="#141414"/>
        <path d="M114.117,348.071c30.435,1.8,57.379-5.807,83.158-25-17.355-2.954-31.776-7.856-42.121-20.218-5.029-6.008-9.751-12.413-11.951-21.5h24.063c-7.72-4.208-13.114-6.9-18.265-10-15.806-9.511-23.68-24.238-26.88-41.856-1-5.493-.844-9.748,6.865-5.856,4.405,2.224,9.288,3.9,14.621,2.6-.05-3.545-3.235-4.731-5.1-6.784-16.916-18.663-20.323-39.9-12.4-63.4,2.1-6.224,4.179-8.13,9.574-2.021,21.865,24.759,49.109,41.13,80.72,50.526,9.093,2.7,18.45,3.784,27.673,5.669,6.582,1.346,9.649-.531,9.007-8.2-1.827-21.844,5.1-40.2,23.489-53.25,23.257-16.5,52.776-15.466,74.543,2.888,3.9,3.284,7.143,3.731,11.99,2.605,9.773-2.271,18.543-7.056,28.77-10.688-2.371,12.772-11.491,20.138-19.7,29.253,10.586.838,18.435-4.714,28.47-6.3-6.507,10.506-14.955,17.829-23.167,25.236-3.881,3.5-5.322,7.088-5.391,12.259C371.166,272.571,330.4,339.749,262.277,363.8c-49.339,17.422-97.375,13.633-143.6-11.16C116.9,351.686,114.942,350.835,114.117,348.071Z" fill="#FFFFFF"/>
    </g>
</svg>
