<svg xmlns="http://www.w3.org/2000/svg" width="512" height="512" viewBox="0 0 512 512">
    <g transform="translate(0 0)">
        <circle cx="256" cy="256" r="256" transform="translate(0 0)" fill="#141414"/>
        <path d="M272.84,199.981c9.259-37.256,35.321-62.371,69.677-61.993,5.9.065,11.974-.342,17.656.9,19.126,4.166,29.125,17.682,31.005,37.976,2.722,29.385-8.427,54.265-23.131,78.355-21.21,34.75-45.982,66.611-75.882,94.34a108.94,108.94,0,0,1-31.653,20.823c-20.58,8.716-34.228,4.358-47.527-13.843-11.686-15.993-15.97-34.582-21.025-53.074-6.678-24.43-12.65-49.087-21.559-72.851-2.8-7.461-6.181-14.709-11.278-20.992-3.786-4.668-8.009-5.731-13.009-1.832-1.155.9-2.518,1.526-3.745,2.339-14.263,9.461-15.7,9.037-24.925-5.288-2.091-3.248-.806-4.863,1.339-6.656,18.359-15.34,34.591-33.126,54.164-47.07,26.894-19.157,51.282-10.36,59.788,21.926,5.4,20.512,6.757,41.778,10.747,62.569,2.839,14.8,5.932,29.52,12.556,43.168,6.033,12.43,10.758,13.185,20.193,3.407,15.254-15.809,25.065-34.94,32.748-55.218,3.251-8.581,3.933-17.531-2.7-25.053-6.954-7.889-16.193-5.511-24.925-4.362C278.571,197.915,275.889,199.085,272.84,199.981Z" fill="#FFFFFF"/>
    </g>
</svg>
