<svg xmlns="http://www.w3.org/2000/svg" width="512" height="512" viewBox="0 0 512 512">
    <g id="WWW" transform="translate(0 0)">
        <circle cx="256" cy="256" r="256" transform="translate(0 0)" fill="#141414"/>
        <path d="M398.3,300.638l-15.13-60.768h-.25l-14.879,60.768H348.158l-23.631-89.277h19.63l14.129,60.769h.251l15.5-60.769h18.38l15.255,61.519h.25l14.629-61.519h19.256L417.8,300.638Z" fill="#FFFFFF"/>
        <path d="M143.961,300.639l-15.129-60.768h-.25L113.7,300.639H93.821L70.189,211.362h19.63l14.13,60.769h.25L119.7,211.362h18.381l15.254,61.519h.25l14.629-61.519h19.255l-24.007,89.277Z" fill="#FFFFFF"/>
        <path d="M271.129,300.638,256,239.87h-.25l-14.878,60.768H220.989l-23.632-89.277h19.631l14.129,60.769h.25l15.5-60.769h18.38l15.256,61.519h.25l14.628-61.519h19.256l-24.007,89.277Z" fill="#FFFFFF"/>
    </g>
</svg>
