<svg xmlns="http://www.w3.org/2000/svg" width="512" height="512" viewBox="0 0 512 512">
    <g transform="translate(0 0)">
        <circle cx="256" cy="256" r="256" transform="translate(0 0)" fill="#141414"/>
        <path d="M424.022,217.9c.089-12.127-1.587-24.159-3.8-36.059-4.315-23.225-20.215-38.9-41.9-40.4-23.556-1.626-47.166-2.823-70.771-3.336-57.054-1.241-114.087-.378-171.066,3.118-19.428,1.192-34.959,12.2-41.165,29.772a108.632,108.632,0,0,0-5.305,25.068c-3.467,33.336-1.863,66.771-1.606,100.161a163.062,163.062,0,0,0,5.616,42.039c4.33,15.725,14.072,26.248,30.233,30.416,18.779,4.844,38.089,3.966,57.146,4.811,25.1,1.112,50.284.273,75.432.273,37.836.2,75.677.62,113.475-1.7,20-1.228,37.221-7.29,45.8-27.352,3.486-8.151,5.067-16.89,6.046-25.758C425.868,285.32,423.774,251.588,424.022,217.9ZM299.77,256.008c0,1.383-2.438,2.367-3.949,3.127q-31.577,15.9-63.216,31.669c-3.961,1.981-8.05,3.738-11.878,5.949-6.865,3.964-8.515,1.494-8.273-5.589.4-11.8.11-23.622.11-35.435,0-12.109.222-24.222-.092-36.323-.159-6.157,1-8.071,7.261-4.89,25.473,12.946,51.1,25.581,76.688,38.306C297.94,253.577,299.77,253.9,299.77,256.008Z" fill="#FFFFFF"/>
    </g>
</svg>
