<svg xmlns="http://www.w3.org/2000/svg" width="512" height="512" viewBox="0 0 512 512">
	<rect width="512" height="512" transform="translate(0 0)" fill="#FFFFFF" fill-opacity="0"/>
	<path d="M253.508,302.392l-42.426-42.426L373.367,104.045a25.506,25.506,0,0,1,35.7.357h0a25.5,25.5,0,0,1,.357,35.705Z" fill="#141414"/>
	<rect width="60" height="25" transform="translate(196.94 274.108) rotate(45)" fill="#141414"/>
	<path d="M95.61,412.894c-.891-3.439,2.334-7.184,4.359-9.412,4.169-4.586,9.142-7.827,13.041-12.647,6.448-7.858,10.2-17.89,12.985-28.023,2.112-8.692,3.02-17.9,5.071-26.619,2.812-12.456,12.73-22.037,25.188-25.331a19.846,19.846,0,0,1,19.051,5.251l21.023,21.023a19.912,19.912,0,0,1,4.809,20.552,49.477,49.477,0,0,1-8.169,14.75c-15.145,19.388-38.738,29.684-63.09,36.343-8.65,2.326-17.443,4.379-26.382,6.011C101.239,415.2,96.681,415.523,95.61,412.894Z" fill="#141414"/>
</svg>
