<svg xmlns="http://www.w3.org/2000/svg" width="512" height="512" viewBox="0 0 512 512">
	<rect width="512" height="512" fill="rgba(255,255,255,0)"/>
	<g transform="translate(-95.458 -96.935)">
		<path d="M278.735,424.559l-67.653-67.653L469.864,108.273a40.672,40.672,0,0,1,56.928.569h0a40.663,40.663,0,0,1,.569,56.936Z" transform="translate(68.752 0)" fill="#141414"/>
		<rect width="95.677" height="39.865" transform="translate(257.283 382.687) rotate(45)" fill="#141414"/>
		<path d="M95.7,473.937c-1.421-5.484,3.722-11.456,6.951-15.008,6.648-7.313,14.578-12.481,20.8-20.167,10.282-12.53,16.265-28.528,20.706-44.686,3.368-13.86,4.816-28.544,8.086-42.447,4.484-19.862,20.3-35.14,40.165-40.393a31.646,31.646,0,0,1,30.379,8.373l33.524,33.524a31.752,31.752,0,0,1,7.668,32.772,78.9,78.9,0,0,1-13.026,23.521c-24.15,30.916-61.772,47.334-100.6,57.953-13.793,3.709-27.815,6.983-42.069,9.585C104.677,477.614,97.408,478.129,95.7,473.937Z" transform="translate(0 131.534)" fill="#141414"/>
	</g>
</svg>
