<svg xmlns="http://www.w3.org/2000/svg" width="512" height="512" viewBox="0 0 512 512">
    <rect width="512" height="512" fill="#FFFFFF" fill-opacity="0"/>
    <path d="M337.753,221.86a21.617,21.617,0,0,0-2.448,1.828q-55.678,55.635-111.282,111.343c-1.892,1.9-2.894,2.023-4.84.055q-21.192-21.436-42.638-42.62c-1.748-1.729-1.775-2.655-.02-4.4q55.9-55.752,111.636-111.667c2.08-2.087,3.041-1.526,4.794.243,14.033,14.16,28.168,28.219,42.26,42.321C335.982,219.726,336.65,220.593,337.753,221.86Z" fill="#141414"/>
    <path d="M203.316,355.424c-4.393,4.429-8.663,8.7-12.894,13.015a11.3,11.3,0,0,1-5.884,2.9c-13.9,3.125-27.8,6.266-41.722,9.328-7.791,1.714-13.176-3.559-11.514-11.434,2.942-13.947,6.177-27.833,9.1-41.784,1.222-5.83,5.907-8.858,9.569-12.684,6.2-6.475,6.3-6.375,12.509-.166Z" fill="#141414"/>
    <path d="M336.475,131.042c2.491-.279,4.212,1.045,5.838,2.673,11.921,11.94,23.89,23.833,35.778,35.806,3.952,3.98,3.864,7.413-.186,11.518-6.6,6.686-13.373,13.195-19.849,19.993-2.038,2.139-3.005,1.586-4.762-.188q-21-21.2-42.2-42.216c-1.717-1.7-2.491-2.769-.314-4.857,6.892-6.61,13.56-13.451,20.316-20.2C332.589,132.075,334.178,130.78,336.475,131.042Z" fill="#141414"/>
</svg>
