<svg xmlns="http://www.w3.org/2000/svg" width="512" height="512" viewBox="0 0 512 512">
    <rect width="512" height="512" opacity="0"/>
    <path d="M479.668,61.621H32.332A32.369,32.369,0,0,0,0,93.953V418.047a32.369,32.369,0,0,0,32.332,32.332H479.668A32.369,32.369,0,0,0,512,418.047V93.953A32.369,32.369,0,0,0,479.668,61.621ZM445.25,104.288,258.586,261.356c-1.04.873-4.135.872-5.174,0L66.75,104.288ZM42.667,387.712V139.785L225.941,294a47.785,47.785,0,0,0,60.117,0L469.333,139.785V387.712a20,20,0,0,1-20,20H62.667A20,20,0,0,1,42.667,387.712Z" fill="#FFFFFF"/>
</svg>
