<svg xmlns="http://www.w3.org/2000/svg" width="512" height="512" viewBox="0 0 512 512">
    <rect width="512" height="512" fill="rgba(255,255,255,0)"/>
    <path d="M400-1440H40a39.75,39.75,0,0,1-15.57-3.144,39.862,39.862,0,0,1-12.715-8.573,39.863,39.863,0,0,1-8.573-12.715A39.748,39.748,0,0,1,0-1480v-432a39.747,39.747,0,0,1,3.144-15.569,39.868,39.868,0,0,1,8.573-12.715,39.87,39.87,0,0,1,12.715-8.573A39.741,39.741,0,0,1,40-1952H400a39.737,39.737,0,0,1,15.57,3.144,39.865,39.865,0,0,1,12.715,8.573,39.866,39.866,0,0,1,8.573,12.715A39.749,39.749,0,0,1,440-1912v432a39.75,39.75,0,0,1-3.144,15.57,39.865,39.865,0,0,1-8.573,12.715,39.87,39.87,0,0,1-12.715,8.573A39.745,39.745,0,0,1,400-1440Zm-23.722-108.8a8.01,8.01,0,0,0-8,8v28.8a8.01,8.01,0,0,0,8,8h24a8.009,8.009,0,0,0,8-8v-28.8a8.01,8.01,0,0,0-8-8ZM120.181-1664a16.019,16.019,0,0,0-16,16v128a16.019,16.019,0,0,0,16,16h208a16.019,16.019,0,0,0,16-16v-128a16.019,16.019,0,0,0-16-16ZM40.459-1548.8a8.008,8.008,0,0,0-8,8v28.8a8.01,8.01,0,0,0,8,8h24a8.009,8.009,0,0,0,8-8v-28.8a8.01,8.01,0,0,0-8-8Zm335.819-84.8a8.009,8.009,0,0,0-8,8v28.8a8.009,8.009,0,0,0,8,8h24a8.009,8.009,0,0,0,8-8v-28.8a8.009,8.009,0,0,0-8-8Zm-335.819,0a8.008,8.008,0,0,0-8,8v28.8a8.009,8.009,0,0,0,8,8h24a8.009,8.009,0,0,0,8-8v-28.8a8.009,8.009,0,0,0-8-8Zm335.819-84.8a8.009,8.009,0,0,0-8,8v28.8a8.01,8.01,0,0,0,8,8h24a8.01,8.01,0,0,0,8-8v-28.8a8.01,8.01,0,0,0-8-8Zm-335.819,0a8.008,8.008,0,0,0-8,8v28.8a8.008,8.008,0,0,0,8,8h24a8.01,8.01,0,0,0,8-8v-28.8a8.01,8.01,0,0,0-8-8ZM120.181-1888a16.018,16.018,0,0,0-16,16v128a16.018,16.018,0,0,0,16,16h208a16.018,16.018,0,0,0,16-16v-128a16.018,16.018,0,0,0-16-16Zm256.1,84.8a8.009,8.009,0,0,0-8,8v28.8a8.01,8.01,0,0,0,8,8h24a8.01,8.01,0,0,0,8-8v-28.8a8.01,8.01,0,0,0-8-8Zm-335.819,0a8.009,8.009,0,0,0-8,8v28.8a8.008,8.008,0,0,0,8,8h24a8.01,8.01,0,0,0,8-8v-28.8a8.01,8.01,0,0,0-8-8ZM376.278-1888a8.01,8.01,0,0,0-8,8v28.8a8.01,8.01,0,0,0,8,8h24a8.009,8.009,0,0,0,8-8V-1880a8.01,8.01,0,0,0-8-8Zm-335.819,0a8.01,8.01,0,0,0-8,8v28.8a8.008,8.008,0,0,0,8,8h24a8.009,8.009,0,0,0,8-8V-1880a8.01,8.01,0,0,0-8-8Z" transform="translate(36 1952)" fill="#141414" stroke="rgba(0,0,0,0)" stroke-miterlimit="10" stroke-width="1"/>
</svg>
