<svg xmlns="http://www.w3.org/2000/svg" width="512" height="512" viewBox="0 0 512 512">
    <rect width="512" height="512" fill="#FFFFFF" fill-opacity="0"/>
    <path d="M250-1632H25a24.842,24.842,0,0,1-9.731-1.965,24.916,24.916,0,0,1-7.947-5.358,24.916,24.916,0,0,1-5.358-7.947A24.843,24.843,0,0,1,0-1657v-270a24.843,24.843,0,0,1,1.965-9.731,24.916,24.916,0,0,1,5.358-7.947,24.916,24.916,0,0,1,7.947-5.358A24.842,24.842,0,0,1,25-1952H250a24.842,24.842,0,0,1,9.731,1.965,24.917,24.917,0,0,1,7.947,5.358,24.918,24.918,0,0,1,5.358,7.947A24.843,24.843,0,0,1,275-1927v270a24.843,24.843,0,0,1-1.965,9.731,24.916,24.916,0,0,1-5.358,7.947,24.917,24.917,0,0,1-7.947,5.358A24.842,24.842,0,0,1,250-1632Zm-14.826-68a5.006,5.006,0,0,0-5,5v18a5.006,5.006,0,0,0,5,5h15a5.006,5.006,0,0,0,5-5v-18a5.006,5.006,0,0,0-5-5ZM75.113-1772a10.012,10.012,0,0,0-10,10v80a10.012,10.012,0,0,0,10,10h130a10.012,10.012,0,0,0,10-10v-80a10.012,10.012,0,0,0-10-10Zm-49.826,72a5.005,5.005,0,0,0-5,5v18a5.006,5.006,0,0,0,5,5h15a5.006,5.006,0,0,0,5-5v-18a5.006,5.006,0,0,0-5-5Zm209.887-53a5.006,5.006,0,0,0-5,5v18a5.006,5.006,0,0,0,5,5h15a5.006,5.006,0,0,0,5-5v-18a5.006,5.006,0,0,0-5-5Zm-209.887,0a5.005,5.005,0,0,0-5,5v18a5.006,5.006,0,0,0,5,5h15a5.006,5.006,0,0,0,5-5v-18a5.006,5.006,0,0,0-5-5Zm209.887-53a5.006,5.006,0,0,0-5,5v18a5.006,5.006,0,0,0,5,5h15a5.006,5.006,0,0,0,5-5v-18a5.006,5.006,0,0,0-5-5Zm-209.887,0a5.005,5.005,0,0,0-5,5v18a5.005,5.005,0,0,0,5,5h15a5.006,5.006,0,0,0,5-5v-18a5.006,5.006,0,0,0-5-5Zm49.826-106a10.011,10.011,0,0,0-10,10v80a10.011,10.011,0,0,0,10,10h130a10.011,10.011,0,0,0,10-10v-80a10.011,10.011,0,0,0-10-10Zm160.061,53a5.006,5.006,0,0,0-5,5v18a5.006,5.006,0,0,0,5,5h15a5.006,5.006,0,0,0,5-5v-18a5.006,5.006,0,0,0-5-5Zm-209.887,0a5.006,5.006,0,0,0-5,5v18a5.005,5.005,0,0,0,5,5h15a5.006,5.006,0,0,0,5-5v-18a5.006,5.006,0,0,0-5-5Zm209.887-53a5.006,5.006,0,0,0-5,5v18a5.006,5.006,0,0,0,5,5h15a5.006,5.006,0,0,0,5-5v-18a5.006,5.006,0,0,0-5-5Zm-209.887,0a5.006,5.006,0,0,0-5,5v18a5.005,5.005,0,0,0,5,5h15a5.006,5.006,0,0,0,5-5v-18a5.006,5.006,0,0,0-5-5Z" transform="translate(118.5 2048)" fill="#141414" stroke="rgba(0,0,0,0)" stroke-miterlimit="10" stroke-width="1"/>
</svg>
