<svg xmlns="http://www.w3.org/2000/svg" width="512" height="512" viewBox="0 0 512 512">
    <rect width="512" height="512" opacity="0.004"/>
    <path d="M401.092,511.664c-25.868-.342-48.645-6.056-70.929-14.059-37.709-13.543-72.714-32.433-105.767-54.868Q97.031,356.288,29.279,217.93C16.379,191.469,6.506,163.871,1.9,134.635c-2.082-13.2-2.657-26.447-.679-39.778,1.69-11.393,5.887-21.591,13.4-30.278C31.366,45.214,49.12,26.8,68.749,10.343,84.516-2.872,101.834-3.045,117.633,10.1c11.027,9.174,21.312,19.282,31.532,29.375,13.747,13.576,27.14,27.512,40.616,41.36,2.459,2.527,4.534,5.422,6.884,8.061,11.083,12.443,10.43,33.359.127,44.981-9.3,10.484-18.926,20.671-28.454,30.947q-9.49,10.236-19.122,20.343c-3.184,3.338-3.423,6.683-1.454,10.893a272.725,272.725,0,0,0,36.813,58.059c26.182,31.777,55.357,60.449,88.482,85.022,14.093,10.455,29.578,18.383,45.363,25.851,3.4,1.608,5.659,1.177,8.338-1.419,14.216-13.774,28.582-27.394,42.931-41.031,2.389-2.271,4.952-4.359,7.431-6.536,11.937-10.477,25.4-10.522,39.419-5.459a22.679,22.679,0,0,1,6.963,4.735c28.511,25.613,55.889,52.377,81.152,81.223,9.515,10.865,9.854,31.854.624,42.853a502.649,502.649,0,0,1-60.543,60.29c-8.817,7.466-19.794,9.582-30.834,11.076C409.012,511.385,404.043,511.46,401.092,511.664Z" fill="#fff"/>
</svg>
